<?xml version="1.0" encoding="iso-8859-1"?>
<!-- Generator: Adobe Illustrator 16.0.0, SVG Export Plug-In . SVG Version: 6.00 Build 0)  -->
<!DOCTYPE svg PUBLIC "-//W3C//DTD SVG 1.1//EN" "http://www.w3.org/Graphics/SVG/1.1/DTD/svg11.dtd">
<svg version="1.1" id="Capa_1" xmlns="http://www.w3.org/2000/svg" xmlns:xlink="http://www.w3.org/1999/xlink" x="0px" y="0px"
	 width="507.689px" height="507.689px" viewBox="0 0 507.689 507.689" style="enable-background:new 0 0 507.689 507.689;"
	 xml:space="preserve">
<g>
	<g id="Layer_8_4_">
		<path d="M499.651,429.337h-29.471V268.596h9.383c4.433,0,8.031-3.605,8.031-8.038v-155.13c0-4.442-3.599-8.038-8.031-8.038
			h-69.666c-4.433,0-8.025,3.596-8.025,8.038v21.16h-65.647v-50.89c0-4.442-3.599-8.044-8.037-8.044H315.32
			c-7.197-29.213-33.515-50.905-64.949-50.905c-31.438,0-57.756,21.692-64.966,50.905h-7.24c-4.439,0-8.041,3.602-8.041,8.044v50.89
			h-58.931v-21.16c0-4.442-3.599-8.038-8.038-8.038h-69.66c-4.438,0-8.038,3.596-8.038,8.038v155.118
			c0,4.433,3.599,8.031,8.038,8.031h8.038v160.741H8.038c-4.433,0-8.038,3.6-8.038,8.038v45.547c0,4.438,3.604,8.038,8.038,8.038
			h491.614c4.434,0,8.038-3.6,8.038-8.038v-45.547C507.689,432.93,504.085,429.337,499.651,429.337z M119.067,394.678
			c0,3.471-2.792,6.271-6.254,6.271H84.624c-3.453,0-6.26-2.801-6.26-6.271v-97.055c0-3.465,2.807-6.272,6.26-6.272h28.189
			c3.462,0,6.254,2.808,6.254,6.272V394.678z M119.067,267.438c0,3.446-2.792,6.247-6.254,6.247H84.624
			c-3.453,0-6.26-2.801-6.26-6.247v-97.079c0-3.465,2.807-6.266,6.26-6.266h28.189c3.462,0,6.254,2.801,6.254,6.266V267.438z
			 M183.262,394.678c0,3.471-2.807,6.271-6.263,6.271h-28.19c-3.458,0-6.253-2.801-6.253-6.271v-97.055
			c0-3.465,2.795-6.272,6.253-6.272H177c3.456,0,6.263,2.808,6.263,6.272V394.678z M183.262,267.438
			c0,3.446-2.807,6.247-6.263,6.247h-28.19c-3.458,0-6.253-2.801-6.253-6.247v-97.079c0-3.465,2.795-6.266,6.253-6.266H177
			c3.456,0,6.263,2.801,6.263,6.266V267.438z M209.317,96.809h7.146c-0.101-1.522-0.143-4.053-0.143-7.608
			c0-3.453,0.052-5.879,0.143-7.301h-7.146v-8.142h7.77c2.938-28.248,14.772-42.368,35.515-42.368
			c9.938,0,17.908,3.065,23.918,9.201c6.004,6.138,9.719,14.854,11.137,26.171h-14.741c-0.719-7.563-2.862-13.457-6.431-17.729
			c-3.568-4.266-8.202-6.379-13.883-6.379c-11.615,0-18.517,10.37-20.694,31.104h25.852l-2.28,8.142h-24.168
			c-0.101,1.421-0.152,3.848-0.152,7.301c0,3.55,0.058,6.086,0.152,7.608h25.968l-2.274,8.138h-23.09
			c2.183,20.338,9.079,30.51,20.694,30.51c11.861,0,18.627-8.731,20.308-26.171h14.748c-2.266,24.953-13.969,37.424-35.056,37.424
			c-20.6,0-32.434-13.917-35.515-41.756h-7.77L209.317,96.809L209.317,96.809z M308.105,393.155c0,4.457-3.605,8.038-8.044,8.038
			h-91.091c-4.436,0-8.038-3.581-8.038-8.038V172.137c0-4.439,3.602-8.038,8.038-8.038h91.091c4.438,0,8.044,3.599,8.044,8.038
			V393.155z M370.239,394.678c0,3.471-2.808,6.271-6.267,6.271H335.78c-3.452,0-6.247-2.801-6.247-6.271v-97.055
			c0-3.465,2.795-6.272,6.247-6.272h28.192c3.459,0,6.267,2.808,6.267,6.272V394.678z M370.239,267.438
			c0,3.446-2.808,6.247-6.267,6.247H335.78c-3.452,0-6.247-2.801-6.247-6.247v-97.079c0-3.465,2.795-6.266,6.247-6.266h28.192
			c3.459,0,6.267,2.801,6.267,6.266V267.438z M434.425,394.678c0,3.471-2.801,6.271-6.26,6.271h-28.181
			c-3.471,0-6.272-2.801-6.272-6.271v-97.055c0-3.465,2.802-6.272,6.272-6.272h28.181c3.459,0,6.26,2.808,6.26,6.272V394.678z
			 M434.425,267.438c0,3.446-2.801,6.247-6.26,6.247h-28.181c-3.471,0-6.272-2.801-6.272-6.247v-97.079
			c0-3.465,2.802-6.266,6.272-6.266h28.181c3.459,0,6.26,2.801,6.26,6.266V267.438z"/>
	</g>
</g>
<g>
</g>
<g>
</g>
<g>
</g>
<g>
</g>
<g>
</g>
<g>
</g>
<g>
</g>
<g>
</g>
<g>
</g>
<g>
</g>
<g>
</g>
<g>
</g>
<g>
</g>
<g>
</g>
<g>
</g>
</svg>
