<?xml version="1.0" encoding="iso-8859-1"?>
<!-- Generator: Adobe Illustrator 16.0.0, SVG Export Plug-In . SVG Version: 6.00 Build 0)  -->
<!DOCTYPE svg PUBLIC "-//W3C//DTD SVG 1.1//EN" "http://www.w3.org/Graphics/SVG/1.1/DTD/svg11.dtd">
<svg version="1.1" id="Capa_1" xmlns="http://www.w3.org/2000/svg" xmlns:xlink="http://www.w3.org/1999/xlink" x="0px" y="0px"
	 width="70.074px" height="70.074px" viewBox="0 0 70.074 70.074" style="enable-background:new 0 0 70.074 70.074;"
	 xml:space="preserve">
<g>
	<g>
		<path d="M39.793,40.134c-0.728-0.501-2.096-1.026-4.123-1.597v-6.373c1.206,0.047,2.079,0.507,2.629,1.391
			c0.297,0.476,0.475,1.05,0.534,1.712h2.285c-0.045-1.484-0.529-2.672-1.46-3.572c-0.924-0.899-2.258-1.411-3.99-1.529v-1.714
			h-1.246v1.739c-1.752,0.017-3.116,0.559-4.088,1.624c-0.972,1.061-1.459,2.254-1.459,3.578c0,1.485,0.452,2.648,1.354,3.481
			c0.902,0.832,2.298,1.43,4.193,1.795v7.126c-1.474-0.118-2.485-0.675-3.029-1.66c-0.31-0.543-0.497-1.419-0.566-2.614h-2.314
			c0,1.501,0.248,2.691,0.74,3.567c0.911,1.631,2.632,2.532,5.169,2.694v2.541h1.246v-2.541c1.574-0.174,2.779-0.532,3.621-1.072
			c1.51-0.977,2.263-2.623,2.263-4.945C41.557,42.164,40.97,40.951,39.793,40.134z M34.425,38.286
			c-0.972-0.187-1.752-0.533-2.326-1.021c-0.575-0.488-0.862-1.163-0.862-2.026c0-0.718,0.243-1.402,0.729-2.053
			c0.488-0.655,1.312-1.005,2.459-1.047V38.286z M38.76,46.225c-0.565,1.024-1.597,1.569-3.083,1.638v-6.88
			c1.086,0.292,1.86,0.611,2.321,0.94c0.808,0.563,1.209,1.396,1.209,2.481C39.202,45.098,39.057,45.702,38.76,46.225z"/>
		<path d="M35.037,5.202L0,30.671h8.353l0.441-0.322v34.522h52.479V30.35l0.443,0.322h8.357L35.037,5.202z M35.037,55.427
			c-8.309,0-15.038-6.734-15.038-15.037c0-8.305,6.729-15.039,15.038-15.039c8.308,0,15.037,6.734,15.037,15.039
			C50.074,48.692,43.345,55.427,35.037,55.427z"/>
	</g>
</g>
<g>
</g>
<g>
</g>
<g>
</g>
<g>
</g>
<g>
</g>
<g>
</g>
<g>
</g>
<g>
</g>
<g>
</g>
<g>
</g>
<g>
</g>
<g>
</g>
<g>
</g>
<g>
</g>
<g>
</g>
</svg>
